<svg xmlns="http://www.w3.org/2000/svg" viewBox="0 0 580 250">
<defs><linearGradient id="g" x1="0" x2="1"><stop stop-color="#db2777"/><stop offset="1" stop-color="#7c3aed"/></linearGradient></defs><rect x="2" y="2" width="576" height="246" rx="22" fill="#ffffff" stroke="#f5d0fe" stroke-width="2"/>
<g transform="translate(28 30)"><rect width="68" height="68" rx="16" fill="#fce7f3"/><path d="M34 18 C25 18 25 31 25 38 C25 45 29 50 34 50 C39 50 43 45 43 38 C43 31 43 18 34 18 Z" fill="none" stroke="url(#g)" stroke-width="4"/><path d="M18 38 C18 55 50 55 50 38 M34 55 V62" fill="none" stroke="#7c3aed" stroke-width="3"/></g>
<text x="116" y="58" font-family="Arial" font-size="23" font-weight="800" fill="#0f172a">AuraVoice AI</text><text x="116" y="82" font-family="Arial" font-size="13" fill="#64748b">Voice intelligence &amp; analysis</text>
<text x="28" y="132" font-family="Arial" font-size="14" fill="#334155">Speech features • emotion signals • acoustic analysis</text>
<g font-family="Arial" font-size="11" font-weight="700"><rect x="28" y="160" width="92" height="28" rx="14" fill="#fce7f3"/><text x="74" y="178" text-anchor="middle" fill="#be185d">PYTORCH</text><rect x="128" y="160" width="92" height="28" rx="14" fill="#ede9fe"/><text x="174" y="178" text-anchor="middle" fill="#6d28d9">WHISPER</text><rect x="228" y="160" width="92" height="28" rx="14" fill="#dbeafe"/><text x="274" y="178" text-anchor="middle" fill="#1d4ed8">LIBROSA</text></g>
<path d="M28 216 H548" stroke="#e2e8f0"/><path d="M28 216 Q90 185 150 216 T270 216 T390 216 T510 216 T548 216" fill="none" stroke="url(#g)" stroke-width="2"><animate attributeName="d" dur="2s" repeatCount="indefinite" values="M28 216 Q90 185 150 216 T270 216 T390 216 T510 216 T548 216;M28 216 Q90 235 150 216 T270 216 T390 216 T510 216 T548 216;M28 216 Q90 185 150 216 T270 216 T390 216 T510 216 T548 216"/></path></svg>